<svg width="129" height="62" viewBox="0 0 129 62" fill="none" xmlns="http://www.w3.org/2000/svg">
<path d="M0 31C0 17.7795 0 11.1692 3.49421 6.61549C4.39378 5.44314 5.44314 4.39378 6.61549 3.49421C11.1692 0 17.7795 0 31 0C44.2205 0 50.8308 0 55.3845 3.49421C56.5569 4.39378 57.6062 5.44314 58.5058 6.61549C62 11.1692 62 17.7795 62 31C62 44.2205 62 50.8308 58.5058 55.3845C57.6062 56.5569 56.5569 57.6062 55.3845 58.5058C50.8308 62 44.2205 62 31 62C17.7795 62 11.1692 62 6.61549 58.5058C5.44314 57.6062 4.39378 56.5569 3.49421 55.3845C0 50.8308 0 44.2205 0 31Z" fill="white"/>
<path d="M18.0906 18.0365H18.0874C17.9142 18.0361 17.7425 18.0685 17.5825 18.1316C17.4224 18.1947 17.277 18.2874 17.1548 18.4043C17.0302 18.5221 16.9314 18.6622 16.8641 18.8166C16.7969 18.971 16.7625 19.1365 16.763 19.3037V38.3052C16.763 39.002 17.3608 39.5703 18.0958 39.572C21.1943 39.5791 26.3856 40.1938 29.9668 43.7614V23.8758C29.9668 23.6396 29.9034 23.4177 29.7838 23.2341C26.8445 18.728 21.1961 18.0434 18.0906 18.0365ZM45.2373 38.3052V19.3036C45.2373 18.9635 45.0981 18.6441 44.8455 18.4042C44.7232 18.2873 44.5779 18.1947 44.4179 18.1315C44.2578 18.0684 44.0862 18.036 43.913 18.0364H43.9097C40.8043 18.0434 35.1559 18.728 32.2165 23.2341C32.0969 23.4177 32.0336 23.6396 32.0336 23.8758V43.7613C35.6148 40.1937 40.8061 39.579 43.9046 39.5719C44.6394 39.5701 45.2373 39.0019 45.2373 38.3052Z" fill="black"/>
<path d="M48.2691 22.4186H47.3039V38.3053C47.3039 40.0843 45.7812 41.535 43.9094 41.5395C41.2812 41.5454 36.9477 42.0346 33.8786 44.7997C39.1866 43.5626 44.7821 44.3668 47.9711 45.0586C48.1664 45.1015 48.3694 45.1017 48.5649 45.0593C48.7604 45.0169 48.9432 44.9329 49.0997 44.8137C49.2562 44.6954 49.3825 44.5449 49.4691 44.3735C49.5558 44.202 49.6005 44.0142 49.6 43.8239V23.6856C49.6001 22.987 49.0029 22.4186 48.2691 22.4186ZM14.6961 38.3053V22.4186H13.7309C12.9972 22.4186 12.4 22.987 12.4 23.6856V43.8236C12.4 44.2111 12.5824 44.5719 12.9003 44.8133C13.0567 44.9327 13.2396 45.0167 13.4351 45.0591C13.6305 45.1015 13.8336 45.1012 14.0289 45.0582C17.2179 44.3663 22.8135 43.5622 28.1212 44.7994C25.0523 42.0344 20.7188 41.5453 18.0906 41.5393C16.219 41.535 14.6961 40.0843 14.6961 38.3053Z" fill="black"/>
<path d="M77.2368 23.897C76.6371 24.4578 75.9195 24.7382 75.0842 24.7382C74.2489 24.7382 73.5207 24.4578 72.8996 23.897C72.2999 23.3162 72 22.6352 72 21.8541C72 21.073 72.2999 20.402 72.8996 19.8412C73.5207 19.2804 74.2489 19 75.0842 19C75.9195 19 76.6371 19.2804 77.2368 19.8412C77.8579 20.402 78.1685 21.073 78.1685 21.8541C78.1685 22.6352 77.8579 23.3162 77.2368 23.897ZM77.7508 40.9914H72.4177V25.97H77.7508V40.9914Z" fill="white"/>
<path d="M92.1356 27.3519V25.97H97.4687V47H92.1356V39.6094C91.0433 40.8112 89.5226 41.412 87.5735 41.412C85.4103 41.412 83.6111 40.6609 82.1761 39.1588C80.7411 37.6366 80.0236 35.7439 80.0236 33.4807C80.0236 31.1974 80.7411 29.3147 82.1761 27.8326C83.6111 26.3104 85.4103 25.5494 87.5735 25.5494C89.5226 25.5494 91.0433 26.1502 92.1356 27.3519ZM86.3205 35.8541C86.9202 36.4549 87.7341 36.7554 88.7622 36.7554C89.7903 36.7554 90.6042 36.4549 91.2039 35.8541C91.825 35.2332 92.1356 34.4421 92.1356 33.4807C92.1356 32.5193 91.825 31.7282 91.2039 31.1073C90.6042 30.5064 89.7903 30.206 88.7622 30.206C87.7341 30.206 86.9202 30.5064 86.3205 31.1073C85.6994 31.7282 85.3888 32.5193 85.3888 33.4807C85.3888 34.4421 85.6994 35.2332 86.3205 35.8541Z" fill="white"/>
<path d="M105.894 25.97V28.764C106.193 27.8026 106.782 27.0515 107.661 26.5107C108.56 25.9499 109.578 25.6695 110.713 25.6695V31.1974C109.492 31.0172 108.378 31.2275 107.371 31.8283C106.386 32.4292 105.894 33.4106 105.894 34.7725V40.9914H100.56V25.97H105.894Z" fill="white"/>
<path d="M123.667 27.3519V25.97H129V40.9914H123.667V39.6094C122.575 40.8112 121.054 41.412 119.105 41.412C116.942 41.412 115.142 40.6609 113.707 39.1588C112.272 37.6366 111.555 35.7439 111.555 33.4807C111.555 31.1974 112.272 29.3147 113.707 27.8326C115.142 26.3104 116.942 25.5494 119.105 25.5494C121.054 25.5494 122.575 26.1502 123.667 27.3519ZM117.852 35.8541C118.452 36.4549 119.265 36.7554 120.293 36.7554C121.322 36.7554 122.135 36.4549 122.735 35.8541C123.356 35.2332 123.667 34.4421 123.667 33.4807C123.667 32.5193 123.356 31.7282 122.735 31.1073C122.135 30.5064 121.322 30.206 120.293 30.206C119.265 30.206 118.452 30.5064 117.852 31.1073C117.231 31.7282 116.92 32.5193 116.92 33.4807C116.92 34.4421 117.231 35.2332 117.852 35.8541Z" fill="white"/>
</svg>
