<svg width="90" height="40" viewBox="0 0 90 40" fill="none" xmlns="http://www.w3.org/2000/svg">
<path d="M0 20C0 11.4706 0 7.20595 2.25433 4.26806C2.8347 3.51171 3.51171 2.8347 4.26806 2.25433C7.20595 0 11.4706 0 20 0C28.5294 0 32.794 0 35.7319 2.25433C36.4883 2.8347 37.1653 3.51171 37.7457 4.26806C40 7.20595 40 11.4706 40 20C40 28.5294 40 32.794 37.7457 35.7319C37.1653 36.4883 36.4883 37.1653 35.7319 37.7457C32.794 40 28.5294 40 20 40C11.4706 40 7.20595 40 4.26806 37.7457C3.51171 37.1653 2.8347 36.4883 2.25433 35.7319C0 32.794 0 28.5294 0 20Z" fill="black"/>
<path d="M11.6713 11.6364H11.6693C11.5575 11.6362 11.4468 11.6571 11.3435 11.6978C11.2403 11.7385 11.1465 11.7983 11.0676 11.8738C10.9872 11.9497 10.9235 12.0401 10.8801 12.1397C10.8367 12.2393 10.8145 12.3462 10.8148 12.454V24.713C10.8148 25.1626 11.2005 25.5292 11.6747 25.5304C13.6738 25.5349 17.0229 25.9315 19.3334 28.2332V15.4037C19.3334 15.2513 19.2925 15.1082 19.2154 14.9897C17.319 12.0826 13.6749 11.6409 11.6713 11.6364ZM29.1853 24.713V12.4539C29.1853 12.2345 29.0956 12.0284 28.9326 11.8737C28.8537 11.7983 28.7599 11.7385 28.6567 11.6978C28.5534 11.657 28.4427 11.6362 28.3309 11.6364H28.3288C26.3254 11.6409 22.6812 12.0826 20.7848 14.9897C20.7076 15.1082 20.6668 15.2513 20.6668 15.4037V28.2331C22.9773 25.9314 26.3265 25.5348 28.3255 25.5303C28.7996 25.5291 29.1853 25.1625 29.1853 24.713Z" fill="white"/>
<path d="M31.1413 14.4636H30.5186V24.7131C30.5186 25.8609 29.5362 26.7968 28.3286 26.7996C26.633 26.8035 23.8372 27.1191 21.8572 28.9031C25.2817 28.1049 28.8917 28.6238 30.9491 29.0701C31.0751 29.0977 31.2061 29.0979 31.3322 29.0705C31.4583 29.0432 31.5763 28.989 31.6772 28.9121C31.7782 28.8357 31.8597 28.7386 31.9156 28.628C31.9715 28.5174 32.0003 28.3962 32 28.2735V15.281C32.0001 14.8303 31.6148 14.4636 31.1413 14.4636ZM9.48138 24.7131V14.4636H8.85867C8.38529 14.4636 8 14.8303 8 15.281V28.2733C8 28.5233 8.11766 28.7561 8.32275 28.9118C8.42371 28.9888 8.54167 29.043 8.66778 29.0704C8.7939 29.0977 8.92488 29.0976 9.05091 29.0698C11.1083 28.6234 14.7184 28.1047 18.1427 28.9028C16.1628 27.119 13.367 26.8034 11.6714 26.7996C10.4638 26.7968 9.48138 25.8609 9.48138 24.7131Z" fill="white"/>
<path d="M53.6749 15.6727C53.2541 16.0933 52.7506 16.3036 52.1644 16.3036C51.5782 16.3036 51.0672 16.0933 50.6313 15.6727C50.2104 15.2371 50 14.7264 50 14.1406C50 13.5547 50.2104 13.0515 50.6313 12.6309C51.0672 12.2103 51.5782 12 52.1644 12C52.7506 12 53.2541 12.2103 53.6749 12.6309C54.1108 13.0515 54.3287 13.5547 54.3287 14.1406C54.3287 14.7264 54.1108 15.2371 53.6749 15.6727ZM50.2931 28.4936V17.2275H54.0357V28.4936H50.2931Z" fill="black"/>
<path d="M64.1302 17.2275H67.8728V33H64.1302V27.4571C63.3637 28.3584 62.2965 28.809 60.9288 28.809C59.4257 28.809 58.1632 28.2457 57.1411 27.1191C56.1341 25.9775 55.6306 24.5579 55.6306 22.8605C55.6306 21.1631 56.1341 19.7511 57.1411 18.6245C58.1632 17.4828 59.4257 16.912 60.9288 16.912C62.2965 16.912 63.3637 17.3627 64.1302 18.2639V17.2275ZM60.0495 24.6406C60.4854 25.0912 61.0565 25.3165 61.763 25.3165C62.4694 25.3165 63.0405 25.0912 63.4764 24.6406C63.9123 24.1899 64.1302 23.5966 64.1302 22.8605C64.1302 22.1245 63.9123 21.5311 63.4764 21.0805C63.0405 20.6298 62.4694 20.4045 61.763 20.4045C61.0565 20.4045 60.4854 20.6298 60.0495 21.0805C59.6136 21.5311 59.3957 22.1245 59.3957 22.8605C59.3957 23.5966 59.6136 24.1899 60.0495 24.6406Z" fill="black"/>
<path d="M73.785 19.323C73.9954 18.5869 74.4163 18.0161 75.0476 17.6105C75.6788 17.2049 76.3853 17.0021 77.1668 17.0021V21.1481C76.3101 21.0129 75.5285 21.1706 74.8221 21.6212C74.1307 22.0719 73.785 22.8079 73.785 23.8294V28.4936H70.0424V17.2275H73.785V19.323Z" fill="black"/>
<path d="M86.2574 17.2275H90V28.4936H86.2574V27.4571C85.4909 28.3584 84.4237 28.809 83.056 28.809C81.5529 28.809 80.2904 28.2457 79.2683 27.1191C78.2613 25.9775 77.7578 24.5579 77.7578 22.8605C77.7578 21.1631 78.2613 19.7511 79.2683 18.6245C80.2904 17.4828 81.5529 16.912 83.056 16.912C84.4237 16.912 85.4909 17.3627 86.2574 18.2639V17.2275ZM82.1767 24.6406C82.6126 25.0912 83.1837 25.3165 83.8902 25.3165C84.5966 25.3165 85.1677 25.0912 85.6036 24.6406C86.0395 24.1899 86.2574 23.5966 86.2574 22.8605C86.2574 22.1245 86.0395 21.5311 85.6036 21.0805C85.1677 20.6298 84.5966 20.4045 83.8902 20.4045C83.1837 20.4045 82.6126 20.6298 82.1767 21.0805C81.7408 21.5311 81.5229 22.1245 81.5229 22.8605C81.5229 23.5966 81.7408 24.1899 82.1767 24.6406Z" fill="black"/>
</svg>
