<svg width="42" height="42" viewBox="0 0 42 42" fill="none" xmlns="http://www.w3.org/2000/svg">
<path d="M0 21C0 12.0442 0 7.56625 2.36704 4.48146C2.97643 3.68729 3.68729 2.97643 4.48146 2.36704C7.56625 0 12.0442 0 21 0C29.9558 0 34.4337 0 37.5185 2.36704C38.3127 2.97643 39.0236 3.68729 39.633 4.48146C42 7.56625 42 12.0442 42 21C42 29.9558 42 34.4337 39.633 37.5185C39.0236 38.3127 38.3127 39.0236 37.5185 39.633C34.4337 42 29.9558 42 21 42C12.0442 42 7.56625 42 4.48146 39.633C3.68729 39.0236 2.97643 38.3127 2.36704 37.5185C0 34.4337 0 29.9558 0 21Z" fill="black"/>
<path d="M12.2549 12.2183H12.2528C12.1354 12.218 12.0191 12.2399 11.9107 12.2827C11.8023 12.3255 11.7038 12.3882 11.621 12.4674C11.5366 12.5472 11.4696 12.6421 11.4241 12.7467C11.3785 12.8513 11.3552 12.9635 11.3556 13.0767V25.9487C11.3556 26.4207 11.7606 26.8057 12.2585 26.8069C14.3575 26.8116 17.8741 27.2281 20.3001 29.6448V16.1739C20.3001 16.0139 20.2572 15.8636 20.1761 15.7392C18.185 12.6867 14.3586 12.2229 12.2549 12.2183ZM30.6446 25.9487V13.0766C30.6446 12.8463 30.5503 12.6299 30.3792 12.4674C30.2964 12.3882 30.1979 12.3254 30.0895 12.2826C29.9811 12.2399 29.8649 12.218 29.7475 12.2182H29.7453C27.6416 12.2229 23.8153 12.6867 21.8241 15.7392C21.743 15.8636 21.7002 16.0139 21.7002 16.1739V29.6447C24.1262 27.228 27.6428 26.8116 29.7418 26.8068C30.2396 26.8056 30.6446 26.4206 30.6446 25.9487Z" fill="white"/>
<path d="M32.6984 15.1868H32.0445V25.9487C32.0445 27.1539 31.013 28.1366 29.7451 28.1396C27.9647 28.1437 25.0291 28.4751 22.95 30.3482C26.5458 29.5101 30.3363 30.0549 32.4965 30.5236C32.6289 30.5526 32.7664 30.5528 32.8988 30.5241C33.0312 30.4953 33.1551 30.4384 33.2611 30.3577C33.3671 30.2775 33.4527 30.1756 33.5113 30.0594C33.57 29.9433 33.6003 29.8161 33.6 29.6872V16.0451C33.6001 15.5718 33.1955 15.1868 32.6984 15.1868ZM9.95545 25.9487V15.1868H9.3016C8.80456 15.1868 8.4 15.5718 8.4 16.0451V29.6869C8.4 29.9495 8.52354 30.1939 8.73889 30.3574C8.84489 30.4382 8.96875 30.4952 9.10117 30.5239C9.23359 30.5526 9.37113 30.5524 9.50346 30.5233C11.6637 30.0546 15.4543 29.5099 19.0499 30.348C16.9709 28.4749 14.0353 28.1436 12.2549 28.1395C10.987 28.1366 9.95545 27.1539 9.95545 25.9487Z" fill="white"/>
</svg>
