<svg width="25" height="25" viewBox="0 0 25 25" fill="none" xmlns="http://www.w3.org/2000/svg">
<circle cx="12.5" cy="12.5" r="12.5" fill="black"/>
<g clip-path="url(#clip0_707_4667)">
<path d="M15.3867 5H15.4934C15.579 6.05783 15.1752 6.84824 14.6845 7.42063C14.203 7.98907 13.5437 8.54038 12.4773 8.45673C12.4062 7.41404 12.8106 6.68226 13.3006 6.11118C13.7551 5.57898 14.5883 5.10539 15.3867 5ZM18.6148 16.0104V16.04C18.3151 16.9477 17.8876 17.7256 17.366 18.4475C16.8898 19.1029 16.3062 19.9848 15.2641 19.9848C14.3637 19.9848 13.7657 19.4059 12.8429 19.3901C11.8667 19.3743 11.3299 19.8742 10.4374 20H10.1331C9.47768 19.9052 8.94877 19.3861 8.56344 18.9185C7.42723 17.5366 6.54922 15.7515 6.38586 13.4673V12.7961C6.45503 11.1612 7.24939 9.83204 8.30524 9.18785C8.86248 8.84534 9.62852 8.55355 10.4815 8.68397C10.8471 8.74061 11.2205 8.86576 11.5479 8.98959C11.8581 9.10881 12.2461 9.32025 12.6136 9.30905C12.8626 9.3018 13.1103 9.17205 13.3612 9.08049C14.0963 8.81504 14.8169 8.51074 15.7667 8.65367C16.9082 8.82624 17.7184 9.33342 18.219 10.1159C17.2533 10.7305 16.4899 11.6566 16.6204 13.238C16.7363 14.6746 17.5715 15.5151 18.6148 16.0104Z" fill="white"/>
</g>
<defs>
<clipPath id="clip0_707_4667">
<rect width="15" height="15" fill="white" transform="translate(5 5)"/>
</clipPath>
</defs>
</svg>
