<svg width="38" height="38" viewBox="0 0 38 38" fill="none" xmlns="http://www.w3.org/2000/svg">
<path id="Exclude" opacity="0.9" fill-rule="evenodd" clip-rule="evenodd" d="M5 0C2.23858 0 0 2.23858 0 5V33C0 35.7614 2.23858 38 5 38H33C35.7614 38 38 35.7614 38 33V5C38 2.23858 35.7614 0 33 0H5ZM17.7399 12.3273C17.3684 11.9187 16.736 11.8886 16.3273 12.2601C15.9186 12.6316 15.8885 13.264 16.26 13.6727L20.6485 18.5L16.26 23.3273C15.8885 23.736 15.9186 24.3684 16.3273 24.7399C16.736 25.1114 17.3684 25.0813 17.7399 24.6727L22.7399 19.1727L23.3514 18.5L22.7399 17.8273L17.7399 12.3273Z" fill="white"/>
</svg>
