<svg width="20" height="20" viewBox="0 0 20 20" fill="none" xmlns="http://www.w3.org/2000/svg">
<g id="Icon">
<path id="Vector" fill-rule="evenodd" clip-rule="evenodd" d="M4.95373 7.29303C5.14125 7.10556 5.39556 7.00024 5.66073 7.00024C5.92589 7.00024 6.1802 7.10556 6.36773 7.29303L9.66073 10.586L12.9537 7.29303C13.1423 7.11087 13.3949 7.01008 13.6571 7.01236C13.9193 7.01463 14.1701 7.1198 14.3555 7.30521C14.541 7.49062 14.6461 7.74143 14.6484 8.00363C14.6507 8.26583 14.5499 8.51843 14.3677 8.70703L10.3677 12.707C10.1802 12.8945 9.92589 12.9998 9.66073 12.9998C9.39556 12.9998 9.14125 12.8945 8.95373 12.707L4.95373 8.70703C4.76625 8.5195 4.66094 8.26519 4.66094 8.00003C4.66094 7.73487 4.76625 7.48056 4.95373 7.29303Z" fill="#808080"/>
</g>
</svg>
