<svg width="17" height="17" viewBox="0 0 17 17" fill="none" xmlns="http://www.w3.org/2000/svg">
<g id="Attach" clip-path="url(#clip0_1135_4072)">
<g id="Group">
<path id="Vector" d="M16.2806 6.19137C16.0032 5.91547 15.5547 5.9167 15.2789 6.19406L6.76378 14.7552C5.65905 15.8599 3.86481 15.8599 2.75803 14.7537C1.65207 13.6472 1.65207 11.8529 2.75816 10.7468L11.5253 1.93366C12.215 1.24398 13.3363 1.24398 14.028 1.93516C14.7195 2.62666 14.7195 3.74786 14.0279 4.43956L6.76511 11.7023L6.76378 11.7037C6.48709 11.9789 6.03994 11.9785 5.76381 11.7024C5.48722 11.4258 5.48722 10.9775 5.76381 10.7009L9.26948 7.19452C9.54607 6.91787 9.54604 6.46935 9.26938 6.19276C8.99273 5.91617 8.54421 5.9162 8.26762 6.19286L4.76198 9.69919C3.93219 10.529 3.93219 11.8743 4.76205 12.7041C5.59188 13.5339 6.93717 13.5339 7.76704 12.7041C7.768 12.7031 7.76876 12.7021 7.76969 12.7012L15.0296 5.44126C16.2745 4.19631 16.2745 2.17811 15.0296 0.933163C13.7845 -0.311054 11.7664 -0.311054 10.5222 0.933163L1.75507 9.74641C0.0970686 11.4044 0.0970684 14.0954 1.75627 15.7555C3.41656 17.4149 6.10761 17.4149 7.7669 15.7556L16.2833 7.19313C16.5592 6.91574 16.558 6.46726 16.2806 6.19137Z" fill="black"/>
</g>
</g>
<defs>
<clipPath id="clip0_1135_4072">
<rect width="17" height="17" fill="white"/>
</clipPath>
</defs>
</svg>
