<svg width="20" height="19" viewBox="0 0 20 19" fill="none" xmlns="http://www.w3.org/2000/svg">
<g id="Trash">
<g id="Group">
<path id="Vector" d="M15.8333 5.54199C15.6123 5.54199 15.4004 5.6254 15.2441 5.77387C15.0878 5.92233 15 6.1237 15 6.33366V15.1932C14.9761 15.5935 14.7866 15.9687 14.4729 16.2369C14.1592 16.5052 13.7466 16.6448 13.325 16.6253H6.675C6.25341 16.6448 5.84082 16.5052 5.52709 16.2369C5.21336 15.9687 5.02391 15.5935 5 15.1932V6.33366C5 6.1237 4.9122 5.92233 4.75592 5.77387C4.59964 5.6254 4.38768 5.54199 4.16667 5.54199C3.94565 5.54199 3.73369 5.6254 3.57741 5.77387C3.42113 5.92233 3.33333 6.1237 3.33333 6.33366V15.1932C3.35712 16.0136 3.72215 16.7915 4.34848 17.3567C4.97481 17.9219 5.81139 18.2282 6.675 18.2087H13.325C14.1886 18.2282 15.0252 17.9219 15.6515 17.3567C16.2778 16.7915 16.6429 16.0136 16.6667 15.1932V6.33366C16.6667 6.1237 16.5789 5.92233 16.4226 5.77387C16.2663 5.6254 16.0543 5.54199 15.8333 5.54199ZM16.6667 3.16699H13.3333V1.58366C13.3333 1.3737 13.2455 1.17233 13.0893 1.02387C12.933 0.8754 12.721 0.791992 12.5 0.791992H7.5C7.27899 0.791992 7.06702 0.8754 6.91074 1.02387C6.75446 1.17233 6.66667 1.3737 6.66667 1.58366V3.16699H3.33333C3.11232 3.16699 2.90036 3.2504 2.74408 3.39887C2.5878 3.54733 2.5 3.7487 2.5 3.95866C2.5 4.16862 2.5878 4.36999 2.74408 4.51845C2.90036 4.66692 3.11232 4.75033 3.33333 4.75033H16.6667C16.8877 4.75033 17.0996 4.66692 17.2559 4.51845C17.4122 4.36999 17.5 4.16862 17.5 3.95866C17.5 3.7487 17.4122 3.54733 17.2559 3.39887C17.0996 3.2504 16.8877 3.16699 16.6667 3.16699ZM8.33333 3.16699V2.37533H11.6667V3.16699H8.33333Z" fill="#F94848"/>
<path id="Vector_2" d="M9.16667 13.4583V7.91667C9.16667 7.7067 9.07887 7.50534 8.92259 7.35687C8.76631 7.20841 8.55435 7.125 8.33333 7.125C8.11232 7.125 7.90036 7.20841 7.74408 7.35687C7.5878 7.50534 7.5 7.7067 7.5 7.91667V13.4583C7.5 13.6683 7.5878 13.8697 7.74408 14.0181C7.90036 14.1666 8.11232 14.25 8.33333 14.25C8.55435 14.25 8.76631 14.1666 8.92259 14.0181C9.07887 13.8697 9.16667 13.6683 9.16667 13.4583ZM12.5 13.4583V7.91667C12.5 7.7067 12.4122 7.50534 12.2559 7.35687C12.0996 7.20841 11.8877 7.125 11.6667 7.125C11.4457 7.125 11.2337 7.20841 11.0774 7.35687C10.9211 7.50534 10.8333 7.7067 10.8333 7.91667V13.4583C10.8333 13.6683 10.9211 13.8697 11.0774 14.0181C11.2337 14.1666 11.4457 14.25 11.6667 14.25C11.8877 14.25 12.0996 14.1666 12.2559 14.0181C12.4122 13.8697 12.5 13.6683 12.5 13.4583Z" fill="#F94848"/>
</g>
</g>
</svg>
