<svg width="15" height="15" viewBox="0 0 15 15" fill="none" xmlns="http://www.w3.org/2000/svg">
<g id="Frame">
<g id="Group">
<path id="Vector" d="M5 3.75C5.69036 3.75 6.25 3.19036 6.25 2.5C6.25 1.80964 5.69036 1.25 5 1.25C4.30964 1.25 3.75 1.80964 3.75 2.5C3.75 3.19036 4.30964 3.75 5 3.75Z" fill="#BFBFBF"/>
<path id="Vector_2" d="M5 8.75C5.69036 8.75 6.25 8.19036 6.25 7.5C6.25 6.80964 5.69036 6.25 5 6.25C4.30964 6.25 3.75 6.80964 3.75 7.5C3.75 8.19036 4.30964 8.75 5 8.75Z" fill="#BFBFBF"/>
<path id="Vector_3" d="M5 13.75C5.69036 13.75 6.25 13.1904 6.25 12.5C6.25 11.8096 5.69036 11.25 5 11.25C4.30964 11.25 3.75 11.8096 3.75 12.5C3.75 13.1904 4.30964 13.75 5 13.75Z" fill="#BFBFBF"/>
<path id="Vector_4" d="M10 3.75C10.6904 3.75 11.25 3.19036 11.25 2.5C11.25 1.80964 10.6904 1.25 10 1.25C9.30964 1.25 8.75 1.80964 8.75 2.5C8.75 3.19036 9.30964 3.75 10 3.75Z" fill="#BFBFBF"/>
<path id="Vector_5" d="M10 8.75C10.6904 8.75 11.25 8.19036 11.25 7.5C11.25 6.80964 10.6904 6.25 10 6.25C9.30964 6.25 8.75 6.80964 8.75 7.5C8.75 8.19036 9.30964 8.75 10 8.75Z" fill="#BFBFBF"/>
<path id="Vector_6" d="M10 13.75C10.6904 13.75 11.25 13.1904 11.25 12.5C11.25 11.8096 10.6904 11.25 10 11.25C9.30964 11.25 8.75 11.8096 8.75 12.5C8.75 13.1904 9.30964 13.75 10 13.75Z" fill="#BFBFBF"/>
</g>
</g>
</svg>
