<svg width="23" height="23" viewBox="0 0 23 23" fill="none" xmlns="http://www.w3.org/2000/svg">
<path fill-rule="evenodd" clip-rule="evenodd" d="M3.86751 7.08171C1.65522 8.84394 0.253737 10.7346 0.145947 10.8821C0.0511074 11.012 0 11.1687 0 11.3295C0 11.4904 0.0511074 11.6471 0.145947 11.777C0.351196 12.0581 5.24716 18.6594 11.4999 18.6594C12.6674 18.6594 13.7876 18.4292 14.8388 18.053L13.63 16.8442C12.9415 17.0337 12.2286 17.1429 11.4999 17.1429C6.89409 17.1429 2.90497 12.7615 1.7241 11.3292C2.27064 10.6648 3.41884 9.36782 4.95307 8.16727L3.86751 7.08171ZM7.07131 10.2855C6.99224 10.6209 6.9504 10.9705 6.9504 11.3297C6.9504 13.8383 8.99134 15.8792 11.4999 15.8792C11.8591 15.8792 12.2087 15.8374 12.5441 15.7583L11.1255 14.3397C9.75174 14.1699 8.65974 13.0778 8.4899 11.7041L7.07131 10.2855ZM9.09622 9.48199L8.0184 8.40417C8.85362 7.41184 10.1044 6.78025 11.4999 6.78025C14.0084 6.78025 16.0493 8.82119 16.0493 11.3297C16.0493 12.7252 15.4178 13.976 14.4254 14.8112L13.3476 13.7334C14.0679 13.1784 14.5328 12.3073 14.5328 11.3297C14.5328 9.65733 13.1723 8.29677 11.4999 8.29677C10.5223 8.29677 9.65123 8.76167 9.09622 9.48199ZM15.6563 16.0421C18.372 14.6468 20.4729 12.306 21.2757 11.3302C20.0943 9.89709 16.1055 5.51648 11.4999 5.51648C9.74438 5.51648 8.08072 6.14993 6.62809 7.01387L5.5207 5.90647C7.24553 4.82621 9.28781 4 11.4999 4C17.7526 4 22.6484 10.6012 22.8538 10.8823C22.9488 11.0122 23 11.1689 23 11.3298C23 11.4907 22.9488 11.6474 22.8538 11.7773C22.7115 11.9718 20.3173 15.2009 16.7801 17.1659L15.6563 16.0421Z" fill="#C6C5C5"/>
<path d="M3 3L20 20" stroke="#C6C5C5" stroke-width="1.7" stroke-linecap="round"/>
</svg>
