<svg width="23" height="23" viewBox="0 0 23 23" fill="none" xmlns="http://www.w3.org/2000/svg">
<path d="M22.8538 10.8823C22.6484 10.6012 17.7526 4 11.4999 4C5.24716 4 0.351196 10.6012 0.145947 10.8821C0.0511074 11.012 0 11.1687 0 11.3295C0 11.4904 0.0511074 11.6471 0.145947 11.777C0.351196 12.0581 5.24716 18.6594 11.4999 18.6594C17.7526 18.6594 22.6484 12.0581 22.8538 11.7773C22.9488 11.6474 23 11.4907 23 11.3298C23 11.1689 22.9488 11.0122 22.8538 10.8823ZM11.4999 17.1429C6.89409 17.1429 2.90497 12.7615 1.7241 11.3292C2.90344 9.89557 6.8842 5.51648 11.4999 5.51648C16.1055 5.51648 20.0943 9.89709 21.2757 11.3302C20.0964 12.7637 16.1156 17.1429 11.4999 17.1429Z" fill="black"/>
<path d="M11.4999 6.78026C8.99138 6.78026 6.95044 8.8212 6.95044 11.3297C6.95044 13.8383 8.99138 15.8792 11.4999 15.8792C14.0085 15.8792 16.0494 13.8383 16.0494 11.3297C16.0494 8.8212 14.0085 6.78026 11.4999 6.78026ZM11.4999 14.3627C9.82747 14.3627 8.46696 13.0021 8.46696 11.3297C8.46696 9.65733 9.82751 8.29678 11.4999 8.29678C13.1723 8.29678 14.5329 9.65733 14.5329 11.3297C14.5329 13.0021 13.1724 14.3627 11.4999 14.3627Z" fill="black"/>
</svg>
