<svg width="15" height="16" viewBox="0 0 15 16" fill="none" xmlns="http://www.w3.org/2000/svg">
<g id="Frame" opacity="0.5" clip-path="url(#clip0_1198_1154)">
<g id="Group">
<path id="Vector" d="M11.25 5.92344H11.0016V4.47031C11.0016 3.54164 10.6326 2.651 9.97598 1.99433C9.31931 1.33766 8.42867 0.96875 7.5 0.96875C6.57133 0.96875 5.68069 1.33766 5.02402 1.99433C4.36735 2.651 3.99844 3.54164 3.99844 4.47031V5.92344H3.75C3.25272 5.92344 2.77581 6.12098 2.42417 6.47261C2.07254 6.82424 1.875 7.30116 1.875 7.79844V13.1562C1.875 13.6535 2.07254 14.1304 2.42417 14.4821C2.77581 14.8337 3.25272 15.0312 3.75 15.0312H11.25C11.7473 15.0312 12.2242 14.8337 12.5758 14.4821C12.9275 14.1304 13.125 13.6535 13.125 13.1562V7.79844C13.125 7.30116 12.9275 6.82424 12.5758 6.47261C12.2242 6.12098 11.7473 5.92344 11.25 5.92344ZM4.93594 4.47031C4.93594 4.1336 5.00226 3.80017 5.13111 3.48909C5.25997 3.178 5.44884 2.89534 5.68693 2.65725C5.92503 2.41915 6.20769 2.23028 6.51878 2.10143C6.82986 1.97257 7.16328 1.90625 7.5 1.90625C7.83672 1.90625 8.17014 1.97257 8.48122 2.10143C8.79231 2.23028 9.07497 2.41915 9.31307 2.65725C9.55116 2.89534 9.74003 3.178 9.86889 3.48909C9.99774 3.80017 10.0641 4.1336 10.0641 4.47031V5.92344H4.93594V4.47031ZM12.1875 13.1562C12.1875 13.4049 12.0887 13.6433 11.9129 13.8192C11.7371 13.995 11.4986 14.0938 11.25 14.0938H3.75C3.50136 14.0938 3.2629 13.995 3.08709 13.8192C2.91127 13.6433 2.8125 13.4049 2.8125 13.1562V7.79844C2.8125 7.5498 2.91127 7.31134 3.08709 7.13552C3.2629 6.95971 3.50136 6.86094 3.75 6.86094H11.25C11.4986 6.86094 11.7371 6.95971 11.9129 7.13552C12.0887 7.31134 12.1875 7.5498 12.1875 7.79844V13.1562Z" fill="black"/>
<path id="Vector_2" d="M7.50004 8.90283C7.31818 8.90288 7.14047 8.95723 6.9897 9.05892C6.83892 9.16061 6.72195 9.30501 6.65376 9.47361C6.58558 9.6422 6.56929 9.82732 6.60699 10.0052C6.64469 10.1831 6.73465 10.3458 6.86536 10.4722V11.5836C6.86536 11.7079 6.91474 11.8272 7.00265 11.9151C7.09056 12.003 7.20979 12.0524 7.33411 12.0524H7.66598C7.7903 12.0524 7.90953 12.003 7.99744 11.9151C8.08535 11.8272 8.13473 11.7079 8.13473 11.5836V10.4722C8.26543 10.3458 8.3554 10.1831 8.3931 10.0052C8.43079 9.82732 8.41451 9.6422 8.34632 9.47361C8.27814 9.30501 8.16116 9.16061 8.01039 9.05892C7.85961 8.95723 7.68191 8.90288 7.50004 8.90283Z" fill="black"/>
</g>
</g>
<defs>
<clipPath id="clip0_1198_1154">
<rect width="15" height="15" fill="white" transform="translate(0 0.5)"/>
</clipPath>
</defs>
</svg>
