<svg width="16" height="16" viewBox="0 0 16 16" fill="none" xmlns="http://www.w3.org/2000/svg">
<g id="Frame" clip-path="url(#clip0_1136_4718)">
<g id="Group">
<path id="Vector" d="M15.4888 14.5735L11.6808 10.6129C12.6602 9.45085 13.1971 7.97978 13.1964 6.45999C13.1964 2.89801 10.2983 0 6.73636 0C3.17438 0 0.276367 2.89801 0.276367 6.45999C0.276367 10.022 3.17438 12.92 6.73636 12.92C8.07358 12.92 9.34788 12.5167 10.4374 11.751L14.2743 15.7416C14.4347 15.9082 14.6504 16 14.8816 16C15.1004 16 15.3079 15.9166 15.4655 15.7649C15.6263 15.6099 15.7191 15.3974 15.7235 15.174C15.7278 14.9507 15.6434 14.7347 15.4888 14.5735ZM6.73636 1.68522C9.36923 1.68522 11.5111 3.82713 11.5111 6.45999C11.5111 9.09286 9.36923 11.2348 6.73636 11.2348C4.10349 11.2348 1.96158 9.09286 1.96158 6.45999C1.96158 3.82713 4.10349 1.68522 6.73636 1.68522Z" fill="#808080"/>
</g>
</g>
<defs>
<clipPath id="clip0_1136_4718">
<rect width="16" height="16" fill="white"/>
</clipPath>
</defs>
</svg>
