<svg width="17" height="17" viewBox="0 0 17 17" fill="none" xmlns="http://www.w3.org/2000/svg">
<path d="M2.9063 11.5998C2.80044 11.5998 2.69696 11.5684 2.60895 11.5096C2.52094 11.4507 2.45234 11.3671 2.41184 11.2693C2.37133 11.1715 2.36073 11.0639 2.38137 10.9601C2.40202 10.8563 2.45299 10.7609 2.52783 10.6861L10.8933 2.32113C10.9426 2.27001 11.0017 2.22923 11.067 2.20117C11.1323 2.17312 11.2026 2.15835 11.2737 2.15774C11.3447 2.15712 11.4152 2.17066 11.481 2.19758C11.5468 2.22449 11.6066 2.26424 11.6568 2.3145C11.7071 2.36476 11.7469 2.42452 11.7738 2.49031C11.8007 2.55609 11.8142 2.62658 11.8136 2.69765C11.813 2.76873 11.7982 2.83897 11.7702 2.90428C11.7421 2.96958 11.7013 3.02865 11.6502 3.07803L3.28477 11.443C3.18038 11.5473 3.04334 11.5998 2.9063 11.5998Z" fill="black"/>
<path d="M2.08067 15.4544C2.00079 15.4544 1.92191 15.4366 1.84981 15.4023C1.77771 15.3679 1.71422 15.3178 1.66399 15.2557C1.61377 15.1936 1.57808 15.121 1.55954 15.0433C1.541 14.9656 1.54008 14.8848 1.55686 14.8067L2.38393 10.9518C2.39849 10.8829 2.4265 10.8175 2.46637 10.7595C2.50624 10.7014 2.55718 10.6518 2.61627 10.6134C2.67536 10.5751 2.74144 10.5488 2.81071 10.536C2.87999 10.5233 2.9511 10.5243 3.01997 10.5391C3.08885 10.5538 3.15413 10.5821 3.21207 10.6221C3.27002 10.6622 3.31949 10.7133 3.35765 10.7725C3.39581 10.8317 3.42191 10.8978 3.43445 10.9671C3.447 11.0364 3.44574 11.1075 3.43074 11.1764L2.60368 15.0312C2.57803 15.1509 2.51213 15.2582 2.41695 15.3352C2.32178 15.4122 2.20309 15.4543 2.08067 15.4544ZM5.93524 14.6274C5.82938 14.6273 5.7259 14.5959 5.63789 14.5371C5.54988 14.4783 5.48128 14.3947 5.44077 14.2969C5.40027 14.1991 5.38967 14.0915 5.41031 13.9877C5.43096 13.8839 5.48192 13.7885 5.55677 13.7136L13.9222 5.34896C13.9716 5.29784 14.0307 5.25706 14.096 5.22901C14.1613 5.20095 14.2315 5.18618 14.3026 5.18557C14.3737 5.18495 14.4442 5.19849 14.51 5.22541C14.5757 5.25232 14.6355 5.29207 14.6858 5.34233C14.736 5.39259 14.7758 5.45235 14.8027 5.51814C14.8296 5.58392 14.8432 5.65441 14.8426 5.72549C14.8419 5.79656 14.8272 5.8668 14.7991 5.93211C14.7711 5.99741 14.7303 6.05648 14.6791 6.10586L6.31398 14.4705C6.2643 14.5203 6.20526 14.5598 6.14027 14.5868C6.07527 14.6137 6.00559 14.6275 5.93524 14.6274Z" fill="black"/>
<path d="M2.07823 15.4546C1.94632 15.454 1.81926 15.4048 1.7214 15.3164C1.62353 15.2279 1.56175 15.1065 1.54789 14.9753C1.53403 14.8441 1.56906 14.7125 1.64628 14.6055C1.7235 14.4986 1.83747 14.4239 1.96635 14.3958L5.82146 13.5688C5.96008 13.5395 6.10466 13.5663 6.22351 13.6435C6.34236 13.7206 6.42579 13.8417 6.45551 13.9802C6.48522 14.1187 6.45881 14.2634 6.38205 14.3825C6.3053 14.5016 6.18446 14.5854 6.04602 14.6155L2.19092 15.4425C2.1539 15.4506 2.11612 15.4547 2.07823 15.4546ZM12.7852 7.77669C12.7148 7.77682 12.6452 7.76303 12.5802 7.73611C12.5153 7.70919 12.4563 7.66968 12.4067 7.61985L9.37865 4.592C9.32753 4.54262 9.28674 4.48355 9.25869 4.41825C9.23063 4.35294 9.21587 4.2827 9.21525 4.21162C9.21463 4.14055 9.22817 4.07006 9.25509 4.00428C9.28201 3.93849 9.32176 3.87873 9.37202 3.82847C9.42228 3.77821 9.48205 3.73846 9.54784 3.71155C9.61363 3.68463 9.68412 3.67109 9.7552 3.6717C9.82628 3.67232 9.89652 3.68709 9.96183 3.71514C10.0271 3.7432 10.0862 3.78398 10.1356 3.8351L13.1636 6.86295C13.2385 6.93781 13.2894 7.03318 13.3101 7.137C13.3307 7.24082 13.3201 7.34844 13.2796 7.44623C13.2391 7.54403 13.1705 7.62762 13.0825 7.68644C12.9945 7.74526 12.891 7.77667 12.7852 7.77669ZM14.2993 6.2629C14.1934 6.26298 14.0898 6.23163 14.0017 6.17282C13.9136 6.11401 13.8449 6.03038 13.8043 5.93251C13.7638 5.83465 13.7532 5.72696 13.7739 5.62306C13.7946 5.51917 13.8456 5.42376 13.9206 5.34889C14.2185 5.05101 14.3826 4.64767 14.3826 4.21355C14.3826 3.77943 14.2185 3.37609 13.9206 3.07821C13.6224 2.78005 13.219 2.61598 12.7849 2.61598C12.3507 2.61598 11.9474 2.78005 11.6495 3.07821C11.5998 3.12792 11.5407 3.16736 11.4758 3.19426C11.4108 3.22117 11.3412 3.23502 11.2709 3.23502C11.2006 3.23502 11.1309 3.22117 11.066 3.19426C11.001 3.16736 10.942 3.12792 10.8923 3.07821C10.8426 3.02849 10.8031 2.96947 10.7762 2.90451C10.7493 2.83955 10.7354 2.76993 10.7354 2.69962C10.7354 2.62931 10.7493 2.55969 10.7762 2.49474C10.8031 2.42978 10.8426 2.37076 10.8923 2.32104C11.3923 1.82082 12.0644 1.54541 12.7849 1.54541C13.5052 1.54541 14.1775 1.82082 14.6775 2.32104C15.1778 2.821 15.4532 3.49305 15.4532 4.21355C15.4532 4.93405 15.1778 5.6061 14.6775 6.10606C14.6279 6.15585 14.569 6.19535 14.5041 6.22227C14.4392 6.24918 14.3696 6.26299 14.2993 6.2629Z" fill="black"/>
</svg>
