<svg width="137" height="96" viewBox="0 0 137 96" fill="none" xmlns="http://www.w3.org/2000/svg">
<g clip-path="url(#clip0_1372_9766)">
<circle cx="69" cy="42" r="42" fill="#D58D54"/>
<path d="M9.55904 52.9647C9.66483 53.0184 9.78174 53.0468 9.90048 53.0476C9.90894 53.0476 9.9176 53.0476 9.92606 53.0472C10.1088 53.0413 14.4261 52.8683 16.8028 50.0464C19.1796 47.2243 18.5947 42.9657 18.5687 42.7856C18.5415 42.5992 18.4463 42.4293 18.3012 42.3083C18.156 42.1873 17.9712 42.1238 17.7819 42.1298C17.5992 42.1358 13.2819 42.3087 10.9052 45.1307C10.46 45.6592 10.1188 46.238 9.85835 46.8312C9.59847 46.211 9.25339 45.6039 8.79442 45.0507C6.43823 42.2117 2.12211 42.0079 1.93956 42.0007C1.75027 41.9929 1.56475 42.0549 1.41865 42.1749C1.27255 42.2949 1.17616 42.4643 1.14801 42.6507C1.12069 42.8304 0.504955 47.0848 2.86115 49.9239C4.99516 52.4955 8.73729 52.905 9.55904 52.9647ZM33.4247 76.0032C33.2836 75.8775 33.1008 75.8079 32.9114 75.8079C32.7219 75.8079 32.5392 75.8775 32.3981 76.0032C32.2619 76.1245 29.0641 79.0151 29.0641 82.6968C29.0641 84.9867 30.3012 86.9703 31.2693 88.1722C29.7799 87.7738 27.3433 87.4091 25.1593 88.3999C21.7922 89.9277 20.4753 94.0216 20.4211 94.1951C20.3647 94.375 20.377 94.5692 20.4556 94.7406C20.5341 94.912 20.6735 95.0486 20.847 95.1242C20.9628 95.1745 22.8962 96 25.1914 96C26.2161 96 27.3133 95.8354 28.3526 95.3637C31.7196 93.836 33.0365 89.7419 33.0907 89.5684L33.0923 89.5613C33.2156 89.5326 33.3299 89.4738 33.4247 89.3902C33.5609 89.2689 36.7586 86.3781 36.7586 82.6966C36.7586 79.0151 33.5609 76.1245 33.4247 76.0032ZM13.2204 68.1538C13.2598 68.1538 13.2998 68.1507 13.3398 68.1446C13.5203 68.1166 17.7845 67.422 19.7982 64.3334C21.812 61.2445 20.7104 57.0883 20.6625 56.9128C20.6125 56.7311 20.4971 56.5742 20.3383 56.4717C20.1794 56.3692 19.9882 56.3284 19.8011 56.3571C19.6207 56.385 15.3565 57.0796 13.3427 60.1683C12.3811 61.6435 12.1305 63.3611 12.1357 64.7733C11.0789 63.6971 9.47883 62.4606 7.48254 62.123C3.83371 61.5057 0.433398 64.1579 0.290284 64.271C0.142091 64.3883 0.042606 64.5559 0.0108762 64.7416C-0.0208536 64.9274 0.017401 65.1183 0.118316 65.2777C0.215649 65.4315 2.54452 69.052 6.19317 69.6689C6.57269 69.733 6.94913 69.7619 7.31981 69.7619C9.63791 69.7619 11.7181 68.6352 12.7339 67.9783C12.8707 68.0912 13.0427 68.1532 13.2204 68.1538ZM25.9497 73.7953C26.8689 70.229 24.4933 66.6388 24.3916 66.4876C24.2863 66.331 24.1266 66.2185 23.9432 66.1717C23.7597 66.1249 23.5653 66.147 23.3973 66.2339C23.2351 66.3177 19.4158 68.3277 18.4964 71.894C17.9889 73.8625 18.4856 75.8369 19.0494 77.2376C17.6217 76.741 15.6358 76.3415 13.6965 76.9226C10.1529 77.9841 8.29217 81.8636 8.21485 82.0284C8.13446 82.199 8.12022 82.3932 8.17485 82.5736C8.22948 82.7541 8.34914 82.9081 8.51088 83.0062C8.63688 83.0827 11.0754 84.5397 13.8754 84.5393C14.5434 84.5393 15.2324 84.4563 15.9151 84.2519C19.0996 83.298 20.9239 80.0702 21.3175 79.3058C22.2287 78.7746 25.1594 76.8604 25.9497 73.7953Z" fill="#ED9D5D"/>
<path d="M39.4564 93.1579C39.3102 93.1579 39.1648 93.1374 39.0245 93.0971C38.6949 93.003 30.861 90.7126 23.1478 83.7908C18.6132 79.7214 15.067 74.8892 12.6077 69.4283C9.5459 62.6294 8.17723 54.847 8.53973 46.2976C8.57529 45.4594 9.29624 44.8105 10.1486 44.8433C10.5582 44.8601 10.9443 45.036 11.2219 45.3325C11.4995 45.6289 11.6458 46.0216 11.6288 46.424C11.0075 61.0722 15.5847 72.8896 25.2328 81.5478C32.4202 87.9976 39.8133 90.1587 39.8871 90.18C40.2442 90.2825 40.5517 90.5079 40.7532 90.8151C40.9548 91.1222 41.0369 91.4904 40.9846 91.8523C40.9323 92.2141 40.749 92.5452 40.4683 92.785C40.1876 93.0248 39.8284 93.1572 39.4564 93.1579Z" fill="#D58D54"/>
<path d="M127.441 52.9647C127.335 53.0184 127.218 53.0468 127.1 53.0476C127.091 53.0476 127.082 53.0476 127.074 53.0472C126.891 53.0413 122.574 52.8683 120.197 50.0464C117.82 47.2243 118.405 42.9657 118.431 42.7856C118.458 42.5992 118.554 42.4293 118.699 42.3083C118.844 42.1873 119.029 42.1238 119.218 42.1298C119.401 42.1358 123.718 42.3087 126.095 45.1307C126.54 45.6592 126.881 46.238 127.142 46.8312C127.402 46.211 127.747 45.6039 128.206 45.0507C130.562 42.2117 134.878 42.0079 135.06 42.0007C135.25 41.9929 135.435 42.0549 135.581 42.1749C135.727 42.2949 135.824 42.4643 135.852 42.6507C135.879 42.8304 136.495 47.0848 134.139 49.9239C132.005 52.4955 128.263 52.905 127.441 52.9647ZM103.575 76.0032C103.716 75.8775 103.899 75.8079 104.089 75.8079C104.278 75.8079 104.461 75.8775 104.602 76.0032C104.738 76.1245 107.936 79.0151 107.936 82.6968C107.936 84.9867 106.699 86.9703 105.731 88.1722C107.22 87.7738 109.657 87.4091 111.841 88.3999C115.208 89.9277 116.525 94.0216 116.579 94.1951C116.635 94.375 116.623 94.5692 116.544 94.7406C116.466 94.912 116.326 95.0486 116.153 95.1242C116.037 95.1745 114.104 96 111.809 96C110.784 96 109.687 95.8354 108.647 95.3637C105.28 93.836 103.964 89.7419 103.909 89.5684L103.908 89.5613C103.784 89.5326 103.67 89.4738 103.575 89.3902C103.439 89.2689 100.241 86.3781 100.241 82.6966C100.241 79.0151 103.439 76.1245 103.575 76.0032ZM123.78 68.1538C123.74 68.1538 123.7 68.1507 123.66 68.1446C123.48 68.1166 119.216 67.422 117.202 64.3334C115.188 61.2445 116.29 57.0883 116.337 56.9128C116.388 56.7311 116.503 56.5742 116.662 56.4717C116.821 56.3692 117.012 56.3284 117.199 56.3571C117.379 56.385 121.643 57.0796 123.657 60.1683C124.619 61.6435 124.87 63.3611 124.864 64.7733C125.921 63.6971 127.521 62.4606 129.517 62.123C133.166 61.5057 136.567 64.1579 136.71 64.271C136.858 64.3883 136.957 64.5559 136.989 64.7416C137.021 64.9274 136.983 65.1183 136.882 65.2777C136.784 65.4315 134.455 69.052 130.807 69.6689C130.427 69.733 130.051 69.7619 129.68 69.7619C127.362 69.7619 125.282 68.6352 124.266 67.9783C124.129 68.0912 123.957 68.1532 123.78 68.1538ZM111.05 73.7953C110.131 70.229 112.507 66.6388 112.608 66.4876C112.714 66.331 112.873 66.2185 113.057 66.1717C113.24 66.1249 113.435 66.147 113.603 66.2339C113.765 66.3177 117.584 68.3277 118.504 71.894C119.011 73.8625 118.514 75.8369 117.951 77.2376C119.378 76.741 121.364 76.3415 123.304 76.9226C126.847 77.9841 128.708 81.8636 128.785 82.0284C128.866 82.199 128.88 82.3932 128.825 82.5736C128.771 82.7541 128.651 82.9081 128.489 83.0062C128.363 83.0827 125.925 84.5397 123.125 84.5393C122.457 84.5393 121.768 84.4563 121.085 84.2519C117.9 83.298 116.076 80.0702 115.683 79.3058C114.771 78.7746 111.841 76.8604 111.05 73.7953Z" fill="#ED9D5D"/>
<path d="M97.5464 93.1579C97.1741 93.158 96.8142 93.0261 96.5329 92.7864C96.2517 92.5467 96.0679 92.2153 96.0154 91.8531C95.963 91.491 96.0453 91.1223 96.2473 90.815C96.4493 90.5077 96.7574 90.2823 97.1149 90.1804C97.2436 90.1428 104.709 87.9245 111.868 81.4589C121.447 72.8067 125.99 61.0193 125.372 46.424C125.354 46.0215 125.501 45.6289 125.778 45.3324C126.056 45.036 126.442 44.86 126.852 44.8433C127.707 44.811 128.425 45.4595 128.46 46.2976C128.823 54.847 127.454 62.6294 124.393 69.4284C121.934 74.8893 118.388 79.7215 113.853 83.7909C106.141 90.7127 98.3078 93.0032 97.9782 93.0973C97.8379 93.1374 97.6925 93.1578 97.5464 93.1579Z" fill="#D58D54"/>
</g>
<defs>
<clipPath id="clip0_1372_9766">
<rect width="137" height="96" fill="white"/>
</clipPath>
</defs>
</svg>
